<svg xmlns="http://www.w3.org/2000/svg" viewBox="0 0 820 480" width="820" height="480">
  <rect width="820" height="480" fill="#0d1117"/>

  <!-- Server rack rows -->
  <!-- Rack 1 -->
  <rect x="60" y="60" width="200" height="360" fill="#161b22" stroke="#30363d" stroke-width="1" rx="3"/>
  <!-- Server units in rack 1 -->
  <rect x="68" y="72" width="184" height="16" fill="#1e2940" stroke="#3a5a8a" stroke-width="0.5" rx="1"/>
  <rect x="68" y="92" width="184" height="16" fill="#1a2235" stroke="#2a4a7a" stroke-width="0.5" rx="1"/>
  <rect x="68" y="112" width="184" height="16" fill="#1e2940" stroke="#3a5a8a" stroke-width="0.5" rx="1"/>
  <rect x="68" y="132" width="184" height="16" fill="#1a2235" stroke="#2a4a7a" stroke-width="0.5" rx="1"/>
  <rect x="68" y="152" width="184" height="16" fill="#1e2940" stroke="#3a5a8a" stroke-width="0.5" rx="1"/>
  <rect x="68" y="172" width="184" height="16" fill="#1a2235" stroke="#2a4a7a" stroke-width="0.5" rx="1"/>
  <rect x="68" y="192" width="184" height="16" fill="#1e2940" stroke="#3a5a8a" stroke-width="0.5" rx="1"/>
  <rect x="68" y="212" width="184" height="16" fill="#1a2235" stroke="#2a4a7a" stroke-width="0.5" rx="1"/>
  <rect x="68" y="232" width="184" height="16" fill="#1e2940" stroke="#3a5a8a" stroke-width="0.5" rx="1"/>
  <rect x="68" y="252" width="184" height="16" fill="#1a2235" stroke="#2a4a7a" stroke-width="0.5" rx="1"/>
  <rect x="68" y="272" width="184" height="16" fill="#1e2940" stroke="#3a5a8a" stroke-width="0.5" rx="1"/>
  <rect x="68" y="292" width="184" height="16" fill="#1a2235" stroke="#2a4a7a" stroke-width="0.5" rx="1"/>
  <rect x="68" y="312" width="184" height="16" fill="#1e2940" stroke="#3a5a8a" stroke-width="0.5" rx="1"/>
  <rect x="68" y="332" width="184" height="16" fill="#1a2235" stroke="#2a4a7a" stroke-width="0.5" rx="1"/>
  <rect x="68" y="352" width="184" height="16" fill="#1e2940" stroke="#3a5a8a" stroke-width="0.5" rx="1"/>
  <rect x="68" y="372" width="184" height="16" fill="#1a2235" stroke="#2a4a7a" stroke-width="0.5" rx="1"/>
  <!-- Status LEDs rack 1 -->
  <circle cx="238" cy="80" r="3" fill="#00cc44" opacity="0.9"/>
  <circle cx="238" cy="100" r="3" fill="#00cc44" opacity="0.9"/>
  <circle cx="238" cy="120" r="3" fill="#ffaa00" opacity="0.9"/>
  <circle cx="238" cy="140" r="3" fill="#00cc44" opacity="0.9"/>
  <circle cx="238" cy="160" r="3" fill="#00cc44" opacity="0.9"/>
  <circle cx="238" cy="180" r="3" fill="#00cc44" opacity="0.9"/>
  <circle cx="238" cy="200" r="3" fill="#ff3322" opacity="0.9"/>
  <circle cx="238" cy="220" r="3" fill="#00cc44" opacity="0.9"/>
  <circle cx="238" cy="240" r="3" fill="#00cc44" opacity="0.9"/>
  <circle cx="238" cy="260" r="3" fill="#ffaa00" opacity="0.9"/>
  <circle cx="238" cy="280" r="3" fill="#00cc44" opacity="0.9"/>
  <circle cx="238" cy="300" r="3" fill="#00cc44" opacity="0.9"/>
  <circle cx="238" cy="320" r="3" fill="#00cc44" opacity="0.9"/>
  <circle cx="238" cy="340" r="3" fill="#ff3322" opacity="0.9"/>
  <circle cx="238" cy="360" r="3" fill="#00cc44" opacity="0.9"/>
  <circle cx="238" cy="380" r="3" fill="#00cc44" opacity="0.9"/>

  <!-- Rack 2 -->
  <rect x="310" y="60" width="200" height="360" fill="#161b22" stroke="#30363d" stroke-width="1" rx="3"/>
  <rect x="318" y="72" width="184" height="16" fill="#1e2940" stroke="#3a5a8a" stroke-width="0.5" rx="1"/>
  <rect x="318" y="92" width="184" height="16" fill="#1a2235" stroke="#2a4a7a" stroke-width="0.5" rx="1"/>
  <rect x="318" y="112" width="184" height="16" fill="#1e2940" stroke="#3a5a8a" stroke-width="0.5" rx="1"/>
  <rect x="318" y="132" width="184" height="16" fill="#1a2235" stroke="#2a4a7a" stroke-width="0.5" rx="1"/>
  <rect x="318" y="152" width="184" height="16" fill="#1e2940" stroke="#3a5a8a" stroke-width="0.5" rx="1"/>
  <rect x="318" y="172" width="184" height="16" fill="#1a2235" stroke="#2a4a7a" stroke-width="0.5" rx="1"/>
  <rect x="318" y="192" width="184" height="16" fill="#1e2940" stroke="#3a5a8a" stroke-width="0.5" rx="1"/>
  <rect x="318" y="212" width="184" height="16" fill="#1a2235" stroke="#2a4a7a" stroke-width="0.5" rx="1"/>
  <rect x="318" y="232" width="184" height="16" fill="#1e2940" stroke="#3a5a8a" stroke-width="0.5" rx="1"/>
  <rect x="318" y="252" width="184" height="16" fill="#1a2235" stroke="#2a4a7a" stroke-width="0.5" rx="1"/>
  <rect x="318" y="272" width="184" height="16" fill="#1e2940" stroke="#3a5a8a" stroke-width="0.5" rx="1"/>
  <rect x="318" y="292" width="184" height="16" fill="#1a2235" stroke="#2a4a7a" stroke-width="0.5" rx="1"/>
  <rect x="318" y="312" width="184" height="16" fill="#1e2940" stroke="#3a5a8a" stroke-width="0.5" rx="1"/>
  <rect x="318" y="332" width="184" height="16" fill="#1a2235" stroke="#2a4a7a" stroke-width="0.5" rx="1"/>
  <rect x="318" y="352" width="184" height="16" fill="#1e2940" stroke="#3a5a8a" stroke-width="0.5" rx="1"/>
  <rect x="318" y="372" width="184" height="16" fill="#1a2235" stroke="#2a4a7a" stroke-width="0.5" rx="1"/>
  <!-- Status LEDs rack 2 -->
  <circle cx="488" cy="80" r="3" fill="#00cc44" opacity="0.9"/>
  <circle cx="488" cy="100" r="3" fill="#00cc44" opacity="0.9"/>
  <circle cx="488" cy="120" r="3" fill="#00cc44" opacity="0.9"/>
  <circle cx="488" cy="140" r="3" fill="#ff3322" opacity="0.9"/>
  <circle cx="488" cy="160" r="3" fill="#00cc44" opacity="0.9"/>
  <circle cx="488" cy="180" r="3" fill="#ffaa00" opacity="0.9"/>
  <circle cx="488" cy="200" r="3" fill="#00cc44" opacity="0.9"/>
  <circle cx="488" cy="220" r="3" fill="#00cc44" opacity="0.9"/>
  <circle cx="488" cy="240" r="3" fill="#00cc44" opacity="0.9"/>
  <circle cx="488" cy="260" r="3" fill="#00cc44" opacity="0.9"/>
  <circle cx="488" cy="280" r="3" fill="#ff3322" opacity="0.9"/>
  <circle cx="488" cy="300" r="3" fill="#00cc44" opacity="0.9"/>
  <circle cx="488" cy="320" r="3" fill="#ffaa00" opacity="0.9"/>
  <circle cx="488" cy="340" r="3" fill="#00cc44" opacity="0.9"/>
  <circle cx="488" cy="360" r="3" fill="#00cc44" opacity="0.9"/>
  <circle cx="488" cy="380" r="3" fill="#00cc44" opacity="0.9"/>

  <!-- Rack 3 -->
  <rect x="560" y="60" width="200" height="360" fill="#161b22" stroke="#30363d" stroke-width="1" rx="3"/>
  <rect x="568" y="72" width="184" height="16" fill="#1e2940" stroke="#3a5a8a" stroke-width="0.5" rx="1"/>
  <rect x="568" y="92" width="184" height="16" fill="#1a2235" stroke="#2a4a7a" stroke-width="0.5" rx="1"/>
  <rect x="568" y="112" width="184" height="16" fill="#1e2940" stroke="#3a5a8a" stroke-width="0.5" rx="1"/>
  <rect x="568" y="132" width="184" height="16" fill="#1a2235" stroke="#2a4a7a" stroke-width="0.5" rx="1"/>
  <rect x="568" y="152" width="184" height="16" fill="#1e2940" stroke="#3a5a8a" stroke-width="0.5" rx="1"/>
  <rect x="568" y="172" width="184" height="16" fill="#1a2235" stroke="#2a4a7a" stroke-width="0.5" rx="1"/>
  <rect x="568" y="192" width="184" height="16" fill="#1e2940" stroke="#3a5a8a" stroke-width="0.5" rx="1"/>
  <rect x="568" y="212" width="184" height="16" fill="#1a2235" stroke="#2a4a7a" stroke-width="0.5" rx="1"/>
  <rect x="568" y="232" width="184" height="16" fill="#1e2940" stroke="#3a5a8a" stroke-width="0.5" rx="1"/>
  <rect x="568" y="252" width="184" height="16" fill="#1a2235" stroke="#2a4a7a" stroke-width="0.5" rx="1"/>
  <rect x="568" y="272" width="184" height="16" fill="#1e2940" stroke="#3a5a8a" stroke-width="0.5" rx="1"/>
  <rect x="568" y="292" width="184" height="16" fill="#1a2235" stroke="#2a4a7a" stroke-width="0.5" rx="1"/>
  <rect x="568" y="312" width="184" height="16" fill="#1e2940" stroke="#3a5a8a" stroke-width="0.5" rx="1"/>
  <rect x="568" y="332" width="184" height="16" fill="#1a2235" stroke="#2a4a7a" stroke-width="0.5" rx="1"/>
  <rect x="568" y="352" width="184" height="16" fill="#1e2940" stroke="#3a5a8a" stroke-width="0.5" rx="1"/>
  <rect x="568" y="372" width="184" height="16" fill="#1a2235" stroke="#2a4a7a" stroke-width="0.5" rx="1"/>
  <circle cx="738" cy="80" r="3" fill="#00cc44" opacity="0.9"/>
  <circle cx="738" cy="100" r="3" fill="#ff3322" opacity="0.9"/>
  <circle cx="738" cy="120" r="3" fill="#00cc44" opacity="0.9"/>
  <circle cx="738" cy="140" r="3" fill="#00cc44" opacity="0.9"/>
  <circle cx="738" cy="160" r="3" fill="#00cc44" opacity="0.9"/>
  <circle cx="738" cy="180" r="3" fill="#ffaa00" opacity="0.9"/>
  <circle cx="738" cy="200" r="3" fill="#00cc44" opacity="0.9"/>
  <circle cx="738" cy="220" r="3" fill="#00cc44" opacity="0.9"/>
  <circle cx="738" cy="240" r="3" fill="#00cc44" opacity="0.9"/>
  <circle cx="738" cy="260" r="3" fill="#ff3322" opacity="0.9"/>
  <circle cx="738" cy="280" r="3" fill="#00cc44" opacity="0.9"/>
  <circle cx="738" cy="300" r="3" fill="#00cc44" opacity="0.9"/>
  <circle cx="738" cy="320" r="3" fill="#ffaa00" opacity="0.9"/>
  <circle cx="738" cy="340" r="3" fill="#00cc44" opacity="0.9"/>
  <circle cx="738" cy="360" r="3" fill="#00cc44" opacity="0.9"/>
  <circle cx="738" cy="380" r="3" fill="#ff3322" opacity="0.9"/>

  <!-- Floor reflection glow -->
  <rect x="0" y="420" width="820" height="60" fill="#0a0e14"/>
  <rect x="60" y="420" width="200" height="3" fill="#1e4a88" opacity="0.4"/>
  <rect x="310" y="420" width="200" height="3" fill="#1e4a88" opacity="0.4"/>
  <rect x="560" y="420" width="200" height="3" fill="#1e4a88" opacity="0.4"/>

  <!-- Label on one server: ironic -->
  <rect x="110" y="230" width="100" height="16" fill="#0d1117" rx="1"/>
  <text x="160" y="242" font-family="monospace" font-size="8" fill="#ffaa00" text-anchor="middle">ON-PREMISE</text>

  <!-- Cloud label floating in dark space -->
  <rect x="330" y="15" width="160" height="26" fill="#0d1117" opacity="0.8" rx="2"/>
  <text x="410" y="32" font-family="Georgia, serif" font-size="12" fill="#f5f0e8" opacity="0.6" text-anchor="middle" font-style="italic">Cloud migration: well underway.</text>

  <!-- Caption bar -->
  <rect x="0" y="435" width="820" height="45" fill="#0d1117" opacity="0.95"/>
  <text x="410" y="462" font-family="Georgia, serif" font-size="13" fill="#c8c0a8" text-anchor="middle" font-style="italic">The on-premise data centre. Photographed from the cloud.</text>
</svg>
